<svg width="250" height="250" viewBox="0 0 250 250" fill="none" xmlns="http://www.w3.org/2000/svg">
<path d="M125 37.418C95.8393 37.418 72.1152 61.1421 72.1152 90.3031C72.1152 104.456 77.6965 120.516 87.0453 133.263C97.6193 147.681 111.099 155.622 125 155.622C138.902 155.622 152.381 147.682 162.956 133.263C172.305 120.516 177.886 104.456 177.886 90.3031C177.886 61.1421 154.161 37.418 125 37.418ZM125 144.347C114.931 144.347 104.411 137.877 96.1377 126.595C88.2751 115.874 83.3906 101.968 83.3906 90.3031C83.3906 67.3593 102.057 48.6933 125 48.6933C147.944 48.6933 166.61 67.3593 166.61 90.3031C166.611 114.125 147.019 144.347 125 144.347Z" fill="#323232"/>
<path d="M125 0C56.0753 0 0 56.0746 0 125C0 193.925 56.0746 250 125 250C193.925 250 250 193.925 250 125C250 56.0746 193.925 0 125 0ZM125 238.725C102.375 238.724 81.2735 232.08 63.5396 220.645C64.156 203.379 71.9721 187.193 85.2063 175.954C90.4651 171.488 98.1444 171 104.316 174.74C110.982 178.78 117.942 180.828 125.002 180.828C132.061 180.828 139.019 178.78 145.682 174.743C151.847 171.007 159.506 171.477 164.74 175.912C177.984 187.135 185.844 203.368 186.46 220.647C168.726 232.081 147.624 238.725 125 238.725ZM197.088 212.892C194.653 195.24 185.804 178.983 172.029 167.31C163.091 159.737 150.155 158.849 139.838 165.1C130.086 171.009 119.914 171.009 110.159 165.097C99.8312 158.838 86.8713 159.748 77.9074 167.36C64.1439 179.048 55.3304 195.259 52.9024 212.885C27.5036 192.01 11.2753 160.366 11.2753 125.001C11.2753 62.2918 62.2925 11.2753 125 11.2753C187.708 11.2753 238.725 62.2918 238.725 125C238.725 160.369 222.493 192.018 197.088 212.892Z" fill="#323232"/>
</svg>
