<svg width="250" height="250" viewBox="0 0 250 250" fill="none" xmlns="http://www.w3.org/2000/svg">
<path d="M126.251 133.125C125.522 133.021 124.584 133.021 123.751 133.125C105.418 132.5 90.834 117.5 90.834 99.0622C90.834 80.208 106.043 64.8955 125.001 64.8955C143.855 64.8955 159.168 80.208 159.168 99.0622C159.063 117.5 144.584 132.5 126.251 133.125Z" stroke="#323232" stroke-width="10" stroke-linecap="round" stroke-linejoin="round"/>
<path d="M195.208 201.876C176.666 218.855 152.083 229.168 124.999 229.168C97.916 229.168 73.3327 218.855 54.791 201.876C55.8327 192.084 62.0827 182.501 73.2285 175.001C101.77 156.043 148.437 156.043 176.77 175.001C187.916 182.501 194.166 192.084 195.208 201.876Z" stroke="#323232" stroke-width="10" stroke-linecap="round" stroke-linejoin="round"/>
<path d="M125.001 229.166C182.53 229.166 229.167 182.529 229.167 125C229.167 67.47 182.53 20.833 125.001 20.833C67.471 20.833 20.834 67.47 20.834 125C20.834 182.529 67.471 229.166 125.001 229.166Z" stroke="#323232" stroke-width="10" stroke-linecap="round" stroke-linejoin="round"/>
</svg>
