<svg width="24" height="24" viewBox="0 0 20 20" fill="none" xmlns="http://www.w3.org/2000/svg">
<g clip-path="url(#clip0_307_71)">
<path fill-rule="evenodd" clip-rule="evenodd" d="M2.56346 4.68045C2.69244 4.36905 2.99631 4.16602 3.33336 4.16602H11.6667C14.8883 4.16602 17.5 6.77769 17.5 9.99935C17.5 13.221 14.8883 15.8327 11.6667 15.8327H4.16669C3.70645 15.8327 3.33336 15.4596 3.33336 14.9993C3.33336 14.5391 3.70645 14.166 4.16669 14.166H11.6667C13.9679 14.166 15.8333 12.3005 15.8333 9.99935C15.8333 7.69817 13.9679 5.83268 11.6667 5.83268H5.3452L6.83928 7.32676C7.16472 7.6522 7.16472 8.17983 6.83928 8.50527C6.51384 8.83068 5.98621 8.83068 5.66077 8.50527L2.7441 5.58861C2.50577 5.35027 2.43448 4.99184 2.56346 4.68045Z" fill="#323232"/>
</g>
<defs>
<clipPath id="clip0_307_71">
<rect width="20" height="20" fill="white"/>
</clipPath>
</defs>
</svg>
