<svg width="200" height="200" viewBox="0 0 200 200" fill="none" xmlns="http://www.w3.org/2000/svg">
<g clip-path="url(#clip0_198_217)">
<path fill-rule="evenodd" clip-rule="evenodd" d="M158.382 99.9842C158.382 116.13 152.702 129.916 141.325 141.293C129.932 152.686 116.162 158.383 100.016 158.383C83.9356 158.383 70.166 152.702 58.7565 141.293C47.3633 129.916 41.6341 116.13 41.6341 99.9842C41.6341 83.8872 47.347 70.1665 58.7565 58.7407C70.1986 47.3474 83.9518 41.6183 100.016 41.6183C116.162 41.6183 129.932 47.3312 141.325 58.7407C152.686 70.1665 158.382 83.8872 158.382 99.9842ZM26.6439 89.2257C31.7708 85.7264 34.3425 81.1528 33.903 70.6873V43.783C33.8542 40.0232 27.0345 39.5675 26.6927 43.783L26.4323 65.6092C26.416 69.6945 20.28 69.8247 20.2962 65.6092L20.5566 43.0343C20.4753 38.9978 13.9648 38.5909 13.8835 43.0343C13.8835 49.3006 13.623 59.3429 13.623 65.6092C13.9486 69.5642 8.25195 70.0851 8.39844 65.6092L8.65886 43.1808C8.51237 40.1372 5.15951 39.0467 2.88086 40.479C0.455729 42.0252 0.944011 45.1339 0.846354 47.7544L0 73.503C0.130208 80.99 2.09961 87.0773 7.95899 89.6652C8.85417 90.0558 10.0911 90.365 11.5234 90.5766L9.50521 153.37C9.39128 157.097 12.4349 160.14 15.9994 160.14H16.8132C20.8333 160.14 24.235 156.706 24.1211 152.523L22.347 90.5603C24.2188 90.2674 25.765 89.8279 26.6439 89.2257ZM173.73 151.482L173.633 95.0851C153.857 83.6593 160.156 39.6326 179.948 39.8767C204.004 40.1534 206.852 89.4861 186.165 94.906L187.695 151.709C187.988 162.452 173.747 163.444 173.73 151.482ZM134.001 99.9353C134.001 109.343 130.697 117.367 124.04 124.024C117.399 130.648 109.375 133.985 99.9675 133.985C90.625 133.985 82.6009 130.648 75.9603 124.024C69.3197 117.367 65.9994 109.343 65.9994 99.9353C65.9994 90.5929 69.3197 82.5688 75.9603 75.9445C82.6172 69.3201 90.625 65.9835 99.9675 65.9835C118.864 65.9998 134.001 81.0226 134.001 99.9353ZM141.96 99.9353C141.96 88.3793 137.891 78.4998 129.704 70.3129C121.517 62.1261 111.605 58.0571 99.9675 58.0571C88.3626 58.0571 78.4831 62.1261 70.3451 70.3129C62.1582 78.4998 58.0404 88.3793 58.0404 99.9353C58.0404 111.524 62.1582 121.403 70.3451 129.623C78.4831 137.826 88.3626 141.944 99.9675 141.944C111.589 141.944 121.501 137.826 129.704 129.623C137.874 121.387 141.96 111.508 141.96 99.9353Z" fill="#E9E9E9"/>
</g>
<defs>
<clipPath id="clip0_198_217">
<rect width="200" height="200" fill="white"/>
</clipPath>
</defs>
</svg>
