<svg width="300" height="300" viewBox="0 0 300 300" fill="none" xmlns="http://www.w3.org/2000/svg">
<rect width="300" height="300" fill="#E9E9E9"/>
<path d="M187.5 145.833V175C187.5 179.603 183.769 183.333 179.167 183.333H120.833C116.231 183.333 112.5 179.603 112.5 175V137.5C112.5 132.898 116.231 129.167 120.833 129.167H127.083C129.706 129.167 132.176 127.932 133.75 125.833L138.125 120C139.699 117.902 142.169 116.667 144.792 116.667H155.208" stroke="#323232" stroke-width="2" stroke-linecap="round" stroke-linejoin="round"/>
<path d="M177.083 116.667V127.083M177.083 127.083V137.5M177.083 127.083H166.667M177.083 127.083H187.5" stroke="#323232" stroke-width="2" stroke-linecap="round" stroke-linejoin="round"/>
<path d="M150 170.833C159.205 170.833 166.667 163.371 166.667 154.167C166.667 144.962 159.205 137.5 150 137.5C140.795 137.5 133.333 144.962 133.333 154.167C133.333 163.371 140.795 170.833 150 170.833Z" stroke="#323232" stroke-width="2" stroke-linecap="round" stroke-linejoin="round"/>
</svg>
