<svg width="24" height="24" viewBox="0 0 28 28" fill="none" xmlns="http://www.w3.org/2000/svg">
<path d="M9.33333 12.8327H9.345M14 12.8327H14.0117M18.6667 12.8327H18.6783M24.5 23.3327L20.6216 21.3934C20.3276 21.2464 20.1806 21.1729 20.0265 21.1211C19.8898 21.0752 19.749 21.0419 19.6061 21.0219C19.4451 20.9993 19.2807 20.9993 18.952 20.9993H7.23333C5.92654 20.9993 5.27315 20.9993 4.77402 20.745C4.33497 20.5214 3.97802 20.1644 3.75432 19.7253C3.5 19.2262 3.5 18.5728 3.5 17.266V8.39935C3.5 7.09255 3.5 6.43916 3.75432 5.94004C3.97802 5.50099 4.33497 5.14403 4.77402 4.92034C5.27315 4.66602 5.92655 4.66602 7.23333 4.66602H20.7667C22.0734 4.66602 22.7269 4.66602 23.226 4.92034C23.665 5.14403 24.022 5.50099 24.2457 5.94004C24.5 6.43916 24.5 7.09257 24.5 8.39935V23.3327Z" stroke="#323232" stroke-width="2" stroke-linecap="round" stroke-linejoin="round"/>
</svg>
