<svg width="20" height="20" viewBox="0 0 30 30" fill="none" xmlns="http://www.w3.org/2000/svg">
<path opacity="0.4" d="M16.1125 7.34961H6.38749C4.24999 7.34961 2.5 9.0996 2.5 11.2371V25.4371C2.5 27.2496 3.8 28.0246 5.3875 27.1371L10.3 24.3996C10.825 24.1121 11.675 24.1121 12.1875 24.3996L17.1 27.1371C18.6875 28.0246 19.9875 27.2496 19.9875 25.4371V11.2371C20 9.0996 18.25 7.34961 16.1125 7.34961Z" fill="#E9E9E9"/>
<path d="M27.5 6.38749V20.5875C27.5 22.4 26.2 23.1625 24.6125 22.2875L20 19.7125V11.2375C20 9.09999 18.25 7.35 16.1125 7.35H10V6.38749C10 4.24999 11.75 2.5 13.8875 2.5H23.6125C25.75 2.5 27.5 4.24999 27.5 6.38749Z" fill="#E9E9E9"/>
</svg>
