<svg width="24" height="24" viewBox="0 0 20 20" fill="none" xmlns="http://www.w3.org/2000/svg">
<path fill-rule="evenodd" clip-rule="evenodd" d="M10 6.875C8.27412 6.875 6.875 8.27411 6.875 10C6.875 11.7259 8.27412 13.125 10 13.125C11.7259 13.125 13.125 11.7259 13.125 10C13.125 8.27411 11.7259 6.875 10 6.875ZM8.125 10C8.125 8.9645 8.9645 8.125 10 8.125C11.0355 8.125 11.875 8.9645 11.875 10C11.875 11.0355 11.0355 11.875 10 11.875C8.9645 11.875 8.125 11.0355 8.125 10Z" fill="#323232"/>
<path fill-rule="evenodd" clip-rule="evenodd" d="M9.97896 1.04102C9.60862 1.04101 9.29937 1.04101 9.04554 1.05832C8.78129 1.07636 8.53171 1.11522 8.28972 1.21546C7.7282 1.44805 7.28207 1.89417 7.04948 2.4557C6.92839 2.74803 6.8956 3.05612 6.88307 3.39098C6.87301 3.66017 6.73716 3.88477 6.53667 4.00052C6.33618 4.11627 6.07375 4.12162 5.83559 3.99575C5.53932 3.83916 5.25612 3.71351 4.9424 3.67221C4.33982 3.59287 3.73039 3.75617 3.2482 4.12617C3.0404 4.28562 2.88193 4.48235 2.7342 4.70218C2.59227 4.91336 2.43768 5.18114 2.25249 5.50191L2.23145 5.53836C2.04625 5.85912 1.89165 6.12688 1.77973 6.35537C1.66322 6.59324 1.57208 6.82884 1.53788 7.08852C1.45855 7.69112 1.62185 8.30053 1.99184 8.78277C2.18444 9.03368 2.43482 9.21618 2.71852 9.39443C2.94667 9.53777 3.07328 9.76777 3.07326 9.99935C3.07325 10.2308 2.94664 10.4608 2.71852 10.6042C2.43478 10.7824 2.18438 10.9649 1.99177 11.2159C1.62177 11.6981 1.45848 12.3075 1.5378 12.9101C1.57199 13.1698 1.66313 13.4054 1.77964 13.6433C1.89157 13.8718 2.04617 14.1395 2.23136 14.4603L2.25241 14.4968C2.4376 14.8175 2.59219 15.0853 2.73412 15.2964C2.88185 15.5163 3.04032 15.713 3.24812 15.8724C3.73031 16.2424 4.33973 16.4058 4.94232 16.3264C5.25602 16.2851 5.53921 16.1595 5.83546 16.0029C6.07365 15.877 6.33612 15.8823 6.53663 15.9982C6.73714 16.1139 6.87301 16.3385 6.88307 16.6078C6.8956 16.9426 6.9284 17.2507 7.04948 17.543C7.28207 18.1045 7.7282 18.5507 8.28972 18.7833C8.53171 18.8835 8.78129 18.9223 9.04554 18.9403C9.29937 18.9577 9.60862 18.9577 9.97896 18.9577H10.021C10.3915 18.9577 10.7006 18.9577 10.9545 18.9403C11.2188 18.9223 11.4684 18.8835 11.7104 18.7833C12.2719 18.5507 12.718 18.1045 12.9506 17.543C13.0717 17.2507 13.1045 16.9426 13.117 16.6077C13.127 16.3385 13.2629 16.1139 13.4634 15.9981C13.6639 15.8823 13.9264 15.877 14.1645 16.0028C14.4608 16.1594 14.744 16.2851 15.0577 16.3263C15.6603 16.4057 16.2697 16.2424 16.7519 15.8724C16.9597 15.7129 17.1181 15.5163 17.2659 15.2964C17.4078 15.0853 17.5624 14.8175 17.7475 14.4968L17.7686 14.4603C17.9538 14.1395 18.1085 13.8717 18.2204 13.6432C18.3369 13.4053 18.428 13.1698 18.4622 12.9101C18.5415 12.3074 18.3782 11.698 18.0082 11.2158C17.8156 10.9648 17.5652 10.7824 17.2815 10.6042C17.0534 10.4608 16.9268 10.2308 16.9268 9.99927C16.9268 9.76777 17.0534 9.53785 17.2815 9.39452C17.5653 9.21627 17.8157 9.03385 18.0083 8.78277C18.3783 8.30059 18.5416 7.69117 18.4623 7.08858C18.428 6.8289 18.337 6.5933 18.2205 6.35543C18.1085 6.12696 17.954 5.85921 17.7687 5.53847L17.7477 5.502C17.5625 5.18122 17.4079 4.91342 17.266 4.70224C17.1182 4.48241 16.9598 4.28568 16.752 4.12622C16.2698 3.75623 15.6604 3.59293 15.0577 3.67227C14.744 3.71357 14.4609 3.8392 14.1646 3.99578C13.9265 4.12167 13.664 4.11632 13.4635 4.00055C13.263 3.88479 13.127 3.66016 13.117 3.39094C13.1045 3.05608 13.0717 2.74802 12.9506 2.4557C12.718 1.89417 12.2719 1.44805 11.7104 1.21546C11.4684 1.11522 11.2188 1.07636 10.9545 1.05832C10.7006 1.04101 10.3915 1.04101 10.021 1.04102H9.97896ZM8.76804 2.37031C8.83237 2.34367 8.93004 2.31912 9.13062 2.30542C9.33687 2.29136 9.60321 2.29102 10 2.29102C10.3969 2.29102 10.6632 2.29136 10.8694 2.30542C11.07 2.31912 11.1677 2.34367 11.232 2.37031C11.4872 2.47603 11.69 2.67882 11.7957 2.93406C11.8291 3.01457 11.8567 3.14007 11.8679 3.43766C11.8925 4.09797 12.2334 4.73376 12.8385 5.08308C13.4435 5.43242 14.1645 5.40968 14.7487 5.10092C15.012 4.96177 15.1345 4.92295 15.2209 4.91157C15.4948 4.87552 15.7718 4.94974 15.991 5.11792C16.0462 5.16028 16.1163 5.23259 16.2285 5.39948C16.3438 5.57104 16.4772 5.80152 16.6756 6.14518C16.874 6.48886 17.007 6.71967 17.0979 6.90529C17.1863 7.08587 17.2139 7.18274 17.223 7.25174C17.259 7.52564 17.1848 7.80266 17.0166 8.02183C16.9635 8.09097 16.8687 8.17767 16.6165 8.3361C16.057 8.68768 15.6769 9.30068 15.6768 9.99927C15.6768 10.6979 16.057 11.311 16.6165 11.6626C16.8686 11.821 16.9635 11.9077 17.0165 11.9768C17.1847 12.196 17.259 12.473 17.2229 12.7469C17.2138 12.8159 17.1862 12.9128 17.0978 13.0933C17.0069 13.2789 16.874 13.5098 16.6755 13.8534C16.4771 14.1971 16.3437 14.4276 16.2284 14.5992C16.1162 14.766 16.0461 14.8383 15.9909 14.8807C15.7717 15.0489 15.4947 15.1231 15.2208 15.0871C15.1345 15.0757 15.0119 15.0368 14.7486 14.8978C14.1645 14.5889 13.4434 14.5663 12.8383 14.9156C12.2334 15.2649 11.8925 15.9007 11.8679 16.561C11.8567 16.8586 11.8291 16.9841 11.7957 17.0647C11.69 17.3198 11.4872 17.5227 11.232 17.6284C11.1677 17.655 11.07 17.6796 10.8694 17.6933C10.6632 17.7073 10.3969 17.7077 10 17.7077C9.60321 17.7077 9.33687 17.7073 9.13062 17.6933C8.93004 17.6796 8.83237 17.655 8.76804 17.6284C8.51287 17.5227 8.31005 17.3198 8.20433 17.0647C8.17098 16.9841 8.14333 16.8586 8.1322 16.561C8.10751 15.9008 7.76668 15.2649 7.16162 14.9156C6.55657 14.5663 5.83556 14.589 5.25136 14.8978C4.98808 15.0369 4.86557 15.0758 4.77917 15.0871C4.50526 15.1232 4.22825 15.0489 4.00908 14.8808C3.95386 14.8384 3.88375 14.7661 3.77159 14.5992C3.6563 14.4277 3.52284 14.1972 3.32443 13.8535C3.126 13.5098 2.99313 13.279 2.90221 13.0934C2.81376 12.9128 2.78619 12.8159 2.77711 12.7469C2.74105 12.473 2.81528 12.196 2.98346 11.9768C3.03651 11.9078 3.13138 11.821 3.38354 11.6626C3.94303 11.3111 4.32323 10.698 4.32326 9.99943C4.3233 9.30068 3.94308 8.6876 3.38355 8.33602C3.13145 8.17759 3.03658 8.09091 2.98353 8.02177C2.81536 7.8026 2.74113 7.52559 2.77719 7.25168C2.78628 7.18269 2.81384 7.08581 2.90229 6.90524C2.99322 6.71961 3.12608 6.4888 3.3245 6.14512C3.52293 5.80146 3.65638 5.57098 3.77168 5.39942C3.88383 5.23254 3.95394 5.16022 4.00915 5.11787C4.22833 4.94968 4.50534 4.87546 4.77924 4.91152C4.86565 4.92289 4.98818 4.96171 5.25148 5.10088C5.83565 5.40964 6.55663 5.43237 7.16166 5.08306C7.76669 4.73375 8.10751 4.09799 8.1322 3.4377C8.14333 3.14009 8.17098 3.01457 8.20433 2.93406C8.31005 2.67882 8.51287 2.47603 8.76804 2.37031Z" fill="#323232"/>
</svg>
