<svg width="159" height="49" viewBox="0 0 159 49" fill="none" xmlns="http://www.w3.org/2000/svg">
<path d="M16.8655 18.2437C12.9515 19.9781 9.83428 23.0906 8.09521 27.0047C7.83272 27.5953 8.0999 28.2844 8.69053 28.5469C8.84521 28.6172 9.00459 28.65 9.16397 28.65C9.61397 28.65 10.0405 28.3922 10.2327 27.9562C11.7374 24.5719 14.428 21.8812 17.8124 20.3812C18.403 20.1187 18.6702 19.4297 18.4077 18.8391C18.1499 18.2484 17.4562 17.9812 16.8655 18.2437ZM26.9249 13.1578C27.2624 12.6047 27.4687 11.9625 27.4687 11.2687C27.4687 9.2625 25.8421 7.64062 23.8405 7.64062C21.8343 7.64062 20.2124 9.26719 20.2124 11.2687C20.2124 11.9625 20.4187 12.6094 20.7562 13.1578C10.5983 14.6531 2.77959 23.4234 2.77959 33.9891V36.525C2.77959 37.1719 3.30459 37.6969 3.95146 37.6969H43.7343C44.3812 37.6969 44.9062 37.1719 44.9062 36.525V33.9891C44.9015 23.4234 37.078 14.6578 26.9249 13.1578ZM42.5624 35.3531H5.11865V33.9891C5.11865 23.6672 13.5187 15.2719 23.8405 15.2719C34.1624 15.2719 42.5624 23.6672 42.5624 33.9891V35.3531ZM43.7296 40.05H3.94678C3.2999 40.05 2.7749 40.575 2.7749 41.2219C2.7749 41.8687 3.2999 42.3937 3.94678 42.3937H43.7296C44.3765 42.3937 44.9015 41.8687 44.9015 41.2219C44.9015 40.575 44.3765 40.05 43.7296 40.05Z" fill="#323232"/>
<path d="M62.224 14.5609H73.296C73.744 14.5609 74.1173 14.7103 74.416 15.0089C74.736 15.3076 74.896 15.6809 74.896 16.1289C74.896 16.5769 74.736 16.9396 74.416 17.2169C74.1173 17.4943 73.744 17.6329 73.296 17.6329H63.632L63.952 17.0889V24.2569L63.664 23.9369H71.856C72.304 23.9369 72.6773 24.0863 72.976 24.3849C73.296 24.6836 73.456 25.0676 73.456 25.5369C73.456 25.9849 73.296 26.3476 72.976 26.6249C72.6773 26.9023 72.304 27.0409 71.856 27.0409H63.728L63.952 26.7529V34.1449L63.728 33.8889H73.296C73.744 33.8889 74.1173 34.0489 74.416 34.3689C74.736 34.6676 74.896 35.0196 74.896 35.4249C74.896 35.8729 74.736 36.2463 74.416 36.5449C74.1173 36.8223 73.744 36.9609 73.296 36.9609H62.224C61.776 36.9609 61.392 36.8116 61.072 36.5129C60.752 36.1929 60.592 35.7983 60.592 35.3289V16.1929C60.592 15.7236 60.752 15.3396 61.072 15.0409C61.392 14.7209 61.776 14.5609 62.224 14.5609ZM92.3133 19.8729C92.7826 19.8729 93.1666 20.0329 93.4653 20.3529C93.7639 20.6516 93.9132 21.0356 93.9132 21.5049V35.3289C93.9132 35.7983 93.7639 36.1929 93.4653 36.5129C93.1666 36.8116 92.7826 36.9609 92.3133 36.9609C91.8653 36.9609 91.4813 36.8116 91.1613 36.5129C90.8626 36.1929 90.7133 35.7983 90.7133 35.3289V33.0249L91.3853 33.1209C91.3853 33.5049 91.2253 33.9316 90.9053 34.4009C90.6066 34.8703 90.1906 35.3289 89.6573 35.7769C89.1239 36.2036 88.4946 36.5663 87.7693 36.8649C87.0439 37.1423 86.2653 37.2809 85.4333 37.2809C83.9613 37.2809 82.6386 36.9076 81.4653 36.1609C80.2919 35.3929 79.3639 34.3476 78.6813 33.0249C77.9986 31.7023 77.6573 30.1983 77.6573 28.5129C77.6573 26.7849 77.9986 25.2703 78.6813 23.9689C79.3639 22.6463 80.2813 21.6116 81.4333 20.8649C82.6066 20.1183 83.9079 19.7449 85.3373 19.7449C86.2546 19.7449 87.0973 19.8943 87.8653 20.1929C88.6546 20.4916 89.3373 20.8756 89.9133 21.3449C90.4893 21.8143 90.9266 22.3156 91.2253 22.8489C91.5453 23.3609 91.7053 23.8516 91.7053 24.3209L90.7133 24.4169V21.5049C90.7133 21.0569 90.8626 20.6729 91.1613 20.3529C91.4813 20.0329 91.8653 19.8729 92.3133 19.8729ZM85.7853 34.3369C86.7879 34.3369 87.6733 34.0809 88.4413 33.5689C89.2093 33.0569 89.8066 32.3636 90.2333 31.4889C90.6599 30.5929 90.8733 29.6009 90.8733 28.5129C90.8733 27.4036 90.6599 26.4116 90.2333 25.5369C89.8066 24.6623 89.2093 23.9689 88.4413 23.4569C87.6733 22.9449 86.7879 22.6889 85.7853 22.6889C84.8039 22.6889 83.9293 22.9449 83.1613 23.4569C82.4146 23.9689 81.8173 24.6623 81.3693 25.5369C80.9426 26.4116 80.7293 27.4036 80.7293 28.5129C80.7293 29.6009 80.9426 30.5929 81.3693 31.4889C81.8173 32.3636 82.4146 33.0569 83.1613 33.5689C83.9293 34.0809 84.8039 34.3369 85.7853 34.3369ZM98.1723 20.3209H105.692C106.119 20.3209 106.471 20.4703 106.748 20.7689C107.047 21.0463 107.196 21.3983 107.196 21.8249C107.196 22.2303 107.047 22.5716 106.748 22.8489C106.471 23.1263 106.119 23.2649 105.692 23.2649H98.1723C97.7456 23.2649 97.3829 23.1263 97.0843 22.8489C96.8069 22.5503 96.6683 22.1983 96.6683 21.7929C96.6683 21.3663 96.8069 21.0143 97.0843 20.7369C97.3829 20.4596 97.7456 20.3209 98.1723 20.3209ZM101.532 16.1609C102.002 16.1609 102.386 16.3209 102.684 16.6409C102.983 16.9396 103.132 17.3236 103.132 17.7929V32.6409C103.132 33.0249 103.196 33.3343 103.324 33.5689C103.452 33.8036 103.623 33.9636 103.836 34.0489C104.071 34.1343 104.306 34.1769 104.54 34.1769C104.775 34.1769 104.978 34.1343 105.148 34.0489C105.34 33.9636 105.564 33.9209 105.82 33.9209C106.076 33.9209 106.311 34.0383 106.524 34.2729C106.738 34.5076 106.844 34.8276 106.844 35.2329C106.844 35.7449 106.567 36.1609 106.012 36.4809C105.458 36.8009 104.86 36.9609 104.22 36.9609C103.858 36.9609 103.431 36.9289 102.94 36.8649C102.45 36.8009 101.97 36.6409 101.5 36.3849C101.052 36.1289 100.679 35.7236 100.38 35.1689C100.082 34.5929 99.9323 33.7929 99.9323 32.7689V17.7929C99.9323 17.3236 100.082 16.9396 100.38 16.6409C100.7 16.3209 101.084 16.1609 101.532 16.1609ZM118.424 37.2809C116.653 37.2809 115.117 36.9183 113.816 36.1929C112.514 35.4463 111.501 34.4329 110.776 33.1529C110.072 31.8516 109.72 30.3689 109.72 28.7049C109.72 26.8276 110.093 25.2276 110.84 23.9049C111.608 22.5609 112.6 21.5369 113.816 20.8329C115.032 20.1076 116.322 19.7449 117.688 19.7449C118.733 19.7449 119.725 19.9583 120.664 20.3849C121.602 20.7903 122.434 21.3663 123.16 22.1129C123.906 22.8383 124.493 23.7023 124.92 24.7049C125.346 25.6863 125.57 26.7636 125.592 27.9369C125.57 28.3636 125.4 28.7156 125.08 28.9929C124.76 29.2703 124.386 29.4089 123.96 29.4089H111.512L110.744 26.6889H122.776L122.168 27.2649V26.4649C122.125 25.7183 121.88 25.0676 121.432 24.5129C120.984 23.9369 120.429 23.4996 119.768 23.2009C119.106 22.8809 118.413 22.7209 117.688 22.7209C117.048 22.7209 116.429 22.8276 115.832 23.0409C115.256 23.2329 114.733 23.5529 114.264 24.0009C113.816 24.4489 113.453 25.0463 113.176 25.7929C112.92 26.5183 112.792 27.4249 112.792 28.5129C112.792 29.6863 113.037 30.7103 113.528 31.5849C114.018 32.4596 114.68 33.1423 115.512 33.6329C116.344 34.1023 117.261 34.3369 118.264 34.3369C119.053 34.3369 119.704 34.2623 120.216 34.1129C120.728 33.9423 121.154 33.7396 121.496 33.5049C121.837 33.2703 122.136 33.0463 122.392 32.8329C122.712 32.6409 123.032 32.5449 123.352 32.5449C123.736 32.5449 124.056 32.6836 124.312 32.9609C124.568 33.2169 124.696 33.5263 124.696 33.8889C124.696 34.3583 124.461 34.7849 123.992 35.1689C123.416 35.7236 122.616 36.2143 121.592 36.6409C120.589 37.0676 119.533 37.2809 118.424 37.2809ZM130.809 36.9609C130.339 36.9609 129.955 36.8116 129.657 36.5129C129.358 36.1929 129.209 35.7983 129.209 35.3289V21.7609C129.209 21.2916 129.358 20.9076 129.657 20.6089C129.955 20.2889 130.339 20.1289 130.809 20.1289C131.257 20.1289 131.63 20.2889 131.929 20.6089C132.249 20.9076 132.409 21.2916 132.409 21.7609V25.3449L132.089 23.9689C132.259 23.3716 132.515 22.8169 132.857 22.3049C133.219 21.7929 133.646 21.3449 134.137 20.9609C134.627 20.5769 135.171 20.2783 135.769 20.0649C136.387 19.8516 137.027 19.7449 137.689 19.7449C138.243 19.7449 138.723 19.8943 139.129 20.1929C139.534 20.4916 139.737 20.8649 139.737 21.3129C139.737 21.8889 139.587 22.3156 139.289 22.5929C138.99 22.8489 138.659 22.9769 138.297 22.9769C137.977 22.9769 137.667 22.9129 137.369 22.7849C137.07 22.6356 136.718 22.5609 136.313 22.5609C135.865 22.5609 135.406 22.6783 134.937 22.9129C134.467 23.1476 134.041 23.4996 133.657 23.9689C133.273 24.4169 132.963 24.9503 132.729 25.5689C132.515 26.1876 132.409 26.8809 132.409 27.6489V35.3289C132.409 35.7983 132.249 36.1929 131.929 36.5129C131.63 36.8116 131.257 36.9609 130.809 36.9609ZM155.096 20.0009C155.565 20.0009 155.949 20.1609 156.248 20.4809C156.546 20.7796 156.696 21.1636 156.696 21.6329V35.3929C156.696 37.2703 156.333 38.7956 155.608 39.9689C154.904 41.1423 153.944 41.9956 152.728 42.5289C151.533 43.0836 150.178 43.3609 148.664 43.3609C147.896 43.3609 147.128 43.2863 146.36 43.1369C145.592 43.0089 144.962 42.8169 144.472 42.5609C143.96 42.3263 143.597 42.0383 143.384 41.6969C143.17 41.3556 143.138 40.9823 143.288 40.5769C143.437 40.0649 143.693 39.7129 144.056 39.5209C144.418 39.3503 144.792 39.3396 145.176 39.4889C145.538 39.6383 146.018 39.8303 146.616 40.0649C147.213 40.2996 147.896 40.4169 148.664 40.4169C149.709 40.4169 150.594 40.2463 151.32 39.9049C152.045 39.5636 152.589 39.0303 152.952 38.3049C153.336 37.5796 153.528 36.6409 153.528 35.4889V33.2809L154.04 34.0489C153.698 34.7529 153.25 35.3396 152.696 35.8089C152.141 36.2783 151.48 36.6409 150.712 36.8969C149.965 37.1529 149.133 37.2809 148.216 37.2809C147.042 37.2809 146.029 37.0249 145.176 36.5129C144.344 35.9796 143.704 35.2543 143.256 34.3369C142.808 33.3983 142.584 32.3316 142.584 31.1369V21.6329C142.584 21.1636 142.733 20.7796 143.032 20.4809C143.33 20.1609 143.714 20.0009 144.184 20.0009C144.632 20.0009 145.005 20.1609 145.304 20.4809C145.624 20.7796 145.784 21.1636 145.784 21.6329V30.2729C145.784 31.6809 146.093 32.7156 146.712 33.3769C147.33 34.0169 148.248 34.3369 149.464 34.3369C150.274 34.3369 150.978 34.1663 151.576 33.8249C152.173 33.4836 152.642 33.0143 152.984 32.4169C153.325 31.7983 153.496 31.0836 153.496 30.2729V21.6329C153.496 21.1636 153.645 20.7796 153.944 20.4809C154.264 20.1609 154.648 20.0009 155.096 20.0009Z" fill="#323232"/>
</svg>
