<svg width="40" height="41" viewBox="0 0 40 41" fill="none" xmlns="http://www.w3.org/2000/svg">
<g clip-path="url(#clip0_457_738)">
<path d="M35.6663 20.9772C35.6663 29.6297 28.6521 36.6439 19.9997 36.6439C11.3472 36.6439 4.33301 29.6297 4.33301 20.9772C4.33301 12.3248 11.3472 5.31055 19.9997 5.31055C28.6521 5.31055 35.6663 12.3247 35.6663 20.9772Z" fill="#E2EAFC" stroke="#323232" stroke-width="2"/>
<path d="M20 12.5273C16.5501 12.5273 13.75 15.3273 13.75 18.7773C13.75 22.1606 16.4 24.9105 19.9166 25.0105C19.9667 25.0105 20.0333 25.0105 20.0667 25.0105C20.1 25.0105 20.1499 25.0105 20.1834 25.0105C20.2 25.0105 20.2166 25.0105 20.2166 25.0105C23.5834 24.8939 26.2333 22.1606 26.2499 18.7773C26.2499 15.3273 23.4499 12.5273 20 12.5273Z" fill="#323232"/>
<path d="M31.3012 33.228C28.3345 35.9613 24.3679 37.6446 20.0012 37.6446C15.6345 37.6446 11.6678 35.9613 8.70117 33.228C9.10117 31.7114 10.1845 30.328 11.7678 29.2613C16.3178 26.228 23.7178 26.228 28.2345 29.2613C29.8345 30.328 30.9012 31.7114 31.3012 33.228Z" fill="#323232"/>
</g>
<defs>
<clipPath id="clip0_457_738">
<rect width="40" height="40" fill="white" transform="translate(0 0.960938)"/>
</clipPath>
</defs>
</svg>
